<?xml version="1.0" encoding="UTF-8"?>
<!DOCTYPE svg PUBLIC "-//W3C//DTD SVG 1.1//EN" "http://www.w3.org/Graphics/SVG/1.1/DTD/svg11.dtd">
<svg xmlns="http://www.w3.org/2000/svg" version="1.1" width="500px" height="159px" style="shape-rendering:geometricPrecision; text-rendering:geometricPrecision; image-rendering:optimizeQuality; fill-rule:evenodd; clip-rule:evenodd" xmlns:xlink="http://www.w3.org/1999/xlink">
<g><path style="opacity:0.999" fill="#d02faf" d="M 41.5,11.5 C 64.6727,11.1692 87.6727,11.5025 110.5,12.5C 104.5,12.5 98.5,12.5 92.5,12.5C 82.8104,12.1682 73.1437,12.5016 63.5,13.5C 54.4473,22.5558 45.1139,31.2225 35.5,39.5C 26.7912,31.7923 18.7912,23.459 11.5,14.5C 11.6082,13.5581 11.9415,12.7247 12.5,12C 22.1609,11.5002 31.8276,11.3335 41.5,11.5 Z"/></g>
<g><path style="opacity:0.997" fill="#d532c7" d="M 92.5,12.5 C 81.3613,22.8011 70.028,32.9678 58.5,43C 54.8926,46.0977 51.8926,49.5977 49.5,53.5C 46.7883,51.1152 44.1216,48.7819 41.5,46.5C 40.5,46.1667 39.8333,45.5 39.5,44.5C 39.1667,42.1667 37.8333,40.8333 35.5,40.5C 35.5,40.1667 35.5,39.8333 35.5,39.5C 45.1139,31.2225 54.4473,22.5558 63.5,13.5C 73.1437,12.5016 82.8104,12.1682 92.5,12.5 Z"/></g>
<g><path style="opacity:0.997" fill="#cc32d4" d="M 92.5,12.5 C 98.5,12.5 104.5,12.5 110.5,12.5C 111.959,12.4326 113.292,12.7659 114.5,13.5C 115.167,14.1667 115.833,14.8333 116.5,15.5C 115.448,15.3505 114.448,15.5172 113.5,16C 98.5,29.6667 83.5,43.3333 68.5,57C 65.5532,59.4356 63.2199,62.2689 61.5,65.5C 57.1667,61.8333 53.1667,57.8333 49.5,53.5C 51.8926,49.5977 54.8926,46.0977 58.5,43C 70.028,32.9678 81.3613,22.8011 92.5,12.5 Z"/></g>
<g><path style="opacity:0.514" fill="#040104" d="M 114.5,13.5 C 129.949,18.3244 137.282,28.9911 136.5,45.5C 135.418,63.4113 126.085,73.9113 108.5,77C 96.924,77.1778 85.424,77.6778 74,78.5C 73.1287,94.8771 73.6287,111.21 75.5,127.5C 75.653,131.397 74.653,134.897 72.5,138C 70.0288,138.706 67.6954,138.373 65.5,137C 46.6057,118.774 28.439,99.9407 11,80.5C 8.84886,77.7838 9.01552,75.2838 11.5,73C 16.0028,72.8887 20.3361,73.3887 24.5,74.5C 20.4862,74.3345 16.4862,74.5012 12.5,75C 11.4464,76.3876 11.2797,77.8876 12,79.5C 19.3417,87.0085 26.8417,94.3418 34.5,101.5C 39.4729,107.14 44.8063,112.473 50.5,117.5C 55.9638,123.465 61.6304,129.298 67.5,135C 68.7494,135.74 69.7494,135.573 70.5,134.5C 71.3318,115.338 71.8318,96.0043 72,76.5C 83.5981,75.843 95.0981,75.1764 106.5,74.5C 123.49,71.1725 132.824,60.8392 134.5,43.5C 134.466,37.3128 132.799,31.6461 129.5,26.5C 127.5,23.8333 125.167,21.5 122.5,19.5C 120.853,17.6736 118.853,16.3403 116.5,15.5C 115.833,14.8333 115.167,14.1667 114.5,13.5 Z"/></g>
<g><path style="opacity:0.3" fill="#010001" d="M 41.5,11.5 C 31.8276,11.3335 22.1609,11.5002 12.5,12C 11.9415,12.7247 11.6082,13.5581 11.5,14.5C 18.7912,23.459 26.7912,31.7923 35.5,39.5C 35.5,39.8333 35.5,40.1667 35.5,40.5C 32.3968,38.5767 29.3968,36.41 26.5,34C 21.6667,29.1667 16.8333,24.3333 12,19.5C 8.11599,15.1688 8.78265,11.8355 14,9.5C 23.265,10.1545 32.4317,10.8212 41.5,11.5 Z"/></g>
<g><path style="opacity:1" fill="#c532da" d="M 116.5,15.5 C 118.853,16.3403 120.853,17.6736 122.5,19.5C 104.204,35.9605 86.0368,52.6272 68,69.5C 67.8019,71.3817 67.3019,73.0484 66.5,74.5C 66.6085,72.4862 65.9418,70.8195 64.5,69.5C 63.5,68.1667 62.5,66.8333 61.5,65.5C 63.2199,62.2689 65.5532,59.4356 68.5,57C 83.5,43.3333 98.5,29.6667 113.5,16C 114.448,15.5172 115.448,15.3505 116.5,15.5 Z"/></g>
<g><path style="opacity:1" fill="#be31e0" d="M 122.5,19.5 C 125.167,21.5 127.5,23.8333 129.5,26.5C 112.037,42.1269 94.7036,57.9603 77.5,74C 87.1609,74.4998 96.8276,74.6665 106.5,74.5C 95.0981,75.1764 83.5981,75.843 72,76.5C 71.8318,96.0043 71.3318,115.338 70.5,134.5C 70.6665,122.829 70.4999,111.162 70,99.5C 63.3036,105.366 56.8036,111.366 50.5,117.5C 44.8063,112.473 39.4729,107.14 34.5,101.5C 43.5216,91.8198 53.1883,82.8198 63.5,74.5C 64.5,74.5 65.5,74.5 66.5,74.5C 67.3019,73.0484 67.8019,71.3817 68,69.5C 86.0368,52.6272 104.204,35.9605 122.5,19.5 Z"/></g>
<g><path style="opacity:1" fill="#bc32eb" d="M 129.5,26.5 C 132.799,31.6461 134.466,37.3128 134.5,43.5C 132.824,60.8392 123.49,71.1725 106.5,74.5C 96.8276,74.6665 87.1609,74.4998 77.5,74C 94.7036,57.9603 112.037,42.1269 129.5,26.5 Z"/></g>
<g><path style="opacity:0.985" fill="#fafafa" d="M 278.5,29.5 C 281.223,32.0624 283.389,35.0624 285,38.5C 285.333,55.8333 285.667,73.1667 286,90.5C 288.069,91.2638 290.236,91.7638 292.5,92C 292.957,92.414 293.291,92.914 293.5,93.5C 288.651,98.1799 283.484,102.513 278,106.5C 274.535,104.023 272.202,100.69 271,96.5C 270.5,85.1716 270.333,73.8382 270.5,62.5C 270.5,60.8333 270.5,59.1667 270.5,57.5C 270.665,54.1501 270.498,50.8168 270,47.5C 268.135,45.3268 265.969,44.9934 263.5,46.5C 262.081,45.9953 261.415,44.9953 261.5,43.5C 263.167,42.5 264.5,41.1667 265.5,39.5C 269.828,36.1736 274.161,32.8403 278.5,29.5 Z"/></g>
<g><path style="opacity:0.54" fill="#0b0b0b" d="M 309.5,32.5 C 313.562,32.7241 316.395,34.7241 318,38.5C 319.26,43.5651 319.76,48.5651 319.5,53.5C 318.5,53.5 317.5,53.5 316.5,53.5C 318.232,45.0374 315.899,38.0374 309.5,32.5 Z"/></g>
<g><path style="opacity:0.99" fill="#f9f9f9" d="M 308.5,32.5 C 308.833,32.5 309.167,32.5 309.5,32.5C 315.899,38.0374 318.232,45.0374 316.5,53.5C 320.634,54.4849 324.968,54.8182 329.5,54.5C 329.5,55.5 329.5,56.5 329.5,57.5C 326.628,62.7338 322.295,65.4005 316.5,65.5C 316.334,73.1739 316.5,80.8406 317,88.5C 319.866,90.8932 322.866,90.8932 326,88.5C 327.28,88.6135 328.113,89.2801 328.5,90.5C 322.17,95.9924 315.67,101.326 309,106.5C 305.535,104.023 303.202,100.69 302,96.5C 301.5,86.172 301.334,75.8387 301.5,65.5C 297.029,66.0894 293.029,65.4228 289.5,63.5C 291.833,59.1667 295.167,55.8333 299.5,53.5C 301.814,52.8213 302.147,51.488 300.5,49.5C 298.365,48.3546 296.199,48.3546 294,49.5C 292.989,48.9444 292.156,48.2778 291.5,47.5C 291.833,46.8333 292.167,46.1667 292.5,45.5C 294.749,44.9202 296.415,43.5869 297.5,41.5C 299.749,40.9202 301.415,39.5869 302.5,37.5C 305.089,36.5806 307.089,34.914 308.5,32.5 Z"/></g>
<g><path style="opacity:0.463" fill="#6a6a6a" d="M 308.5,32.5 C 307.089,34.914 305.089,36.5806 302.5,37.5C 303.911,35.086 305.911,33.4194 308.5,32.5 Z"/></g>
<g><path style="opacity:1" fill="#f8f8f8" d="M 216.5,36.5 C 220.372,40.6931 221.539,45.6931 220,51.5C 216.974,65.8856 211.974,79.5523 205,92.5C 198.989,97.1807 192.989,101.847 187,106.5C 183.621,104.785 181.287,102.118 180,98.5C 175.992,84.1424 170.992,70.1424 165,56.5C 161.575,54.4803 158.075,52.8137 154.5,51.5C 159.98,47.1878 165.313,42.6878 170.5,38C 172.167,37.3333 173.833,37.3333 175.5,38C 178.902,41.9676 181.402,46.4676 183,51.5C 186.605,63.6476 190.605,75.6476 195,87.5C 196.456,84.9676 197.623,82.3009 198.5,79.5C 198.263,78.209 198.596,77.209 199.5,76.5C 201.61,72.4979 202.943,68.1646 203.5,63.5C 203.5,62.8333 203.5,62.1667 203.5,61.5C 205.931,57.3249 205.931,53.1583 203.5,49C 199.164,46.778 195.164,47.278 191.5,50.5C 190.167,49.8333 189.167,48.8333 188.5,47.5C 192.053,44.242 195.72,41.242 199.5,38.5C 204.935,35.5523 210.601,34.8856 216.5,36.5 Z M 203.5,61.5 C 203.5,62.1667 203.5,62.8333 203.5,63.5C 201.39,67.5021 200.057,71.8354 199.5,76.5C 198.596,77.209 198.263,78.209 198.5,79.5C 197.542,79.9528 196.708,80.6195 196,81.5C 193.374,72.6214 190.541,63.7881 187.5,55C 192.182,52.4971 197.182,51.4971 202.5,52C 203.574,52.7387 204.241,53.7387 204.5,55C 203.713,57.0989 203.38,59.2655 203.5,61.5 Z"/></g>
<g><path style="opacity:0.89" fill="#575757" d="M 344.5,35.5 C 344.027,36.9063 343.027,37.573 341.5,37.5C 341.973,36.0937 342.973,35.427 344.5,35.5 Z"/></g>
<g><path style="opacity:0.99" fill="#f1f1f1" d="M 344.5,35.5 C 344.833,35.5 345.167,35.5 345.5,35.5C 346.389,37.736 347.722,39.736 349.5,41.5C 344.672,45.0814 339.672,48.4148 334.5,51.5C 333.712,50.2299 332.712,49.2299 331.5,48.5C 331.622,45.7079 332.956,43.7079 335.5,42.5C 338.089,41.5806 340.089,39.914 341.5,37.5C 343.027,37.573 344.027,36.9063 344.5,35.5 Z"/></g>
<g><path style="opacity:0.566" fill="#0f0f0f" d="M 345.5,35.5 C 350.572,37.0335 352.239,40.2002 350.5,45C 345.245,48.5457 339.745,51.7124 334,54.5C 331.961,53.0217 331.128,51.0217 331.5,48.5C 332.712,49.2299 333.712,50.2299 334.5,51.5C 339.672,48.4148 344.672,45.0814 349.5,41.5C 347.722,39.736 346.389,37.736 345.5,35.5 Z"/></g>
<g><path style="opacity:0.574" fill="#0e0e0e" d="M 199.5,38.5 C 195.72,41.242 192.053,44.242 188.5,47.5C 189.167,48.8333 190.167,49.8333 191.5,50.5C 195.164,47.278 199.164,46.778 203.5,49C 205.931,53.1583 205.931,57.3249 203.5,61.5C 203.38,59.2655 203.713,57.0989 204.5,55C 204.241,53.7387 203.574,52.7387 202.5,52C 197.182,51.4971 192.182,52.4971 187.5,55C 190.541,63.7881 193.374,72.6214 196,81.5C 196.708,80.6195 197.542,79.9528 198.5,79.5C 197.623,82.3009 196.456,84.9676 195,87.5C 190.605,75.6476 186.605,63.6476 183,51.5C 181.402,46.4676 178.902,41.9676 175.5,38C 173.833,37.3333 172.167,37.3333 170.5,38C 165.313,42.6878 159.98,47.1878 154.5,51.5C 158.075,52.8137 161.575,54.4803 165,56.5C 170.992,70.1424 175.992,84.1424 180,98.5C 181.287,102.118 183.621,104.785 187,106.5C 192.989,101.847 198.989,97.1807 205,92.5C 211.974,79.5523 216.974,65.8856 220,51.5C 221.539,45.6931 220.372,40.6931 216.5,36.5C 221.971,37.3856 224.637,40.7189 224.5,46.5C 222.511,55.6337 220.011,64.6337 217,73.5C 213.135,80.5647 209.802,87.8981 207,95.5C 201.906,102.282 195.406,106.949 187.5,109.5C 183.896,109.451 181.396,107.784 180,104.5C 175.615,91.3967 170.948,78.3967 166,65.5C 163.578,60.7435 159.745,57.9102 154.5,57C 151.858,52.5541 152.858,48.8874 157.5,46C 161.783,43.3847 165.783,40.3847 169.5,37C 172.634,36.2099 175.634,36.5432 178.5,38C 180.346,41.1792 182.846,43.6792 186,45.5C 190.426,42.878 194.926,40.5447 199.5,38.5 Z M 203.5,61.5 C 203.5,62.1667 203.5,62.8333 203.5,63.5C 201.39,67.5021 200.057,71.8354 199.5,76.5C 198.596,77.209 198.263,78.209 198.5,79.5C 197.542,79.9528 196.708,80.6195 196,81.5C 193.374,72.6214 190.541,63.7881 187.5,55C 192.182,52.4971 197.182,51.4971 202.5,52C 203.574,52.7387 204.241,53.7387 204.5,55C 203.713,57.0989 203.38,59.2655 203.5,61.5 Z"/></g>
<g><path style="opacity:0.922" fill="#3f1739" d="M 35.5,40.5 C 37.8333,40.8333 39.1667,42.1667 39.5,44.5C 37.8333,43.5 36.5,42.1667 35.5,40.5 Z"/></g>
<g><path style="opacity:0.184" fill="#2e2e2e" d="M 265.5,39.5 C 264.5,41.1667 263.167,42.5 261.5,43.5C 261.833,41.1667 263.167,39.8333 265.5,39.5 Z"/></g>
<g><path style="opacity:0.435" fill="#676767" d="M 302.5,37.5 C 301.415,39.5869 299.749,40.9202 297.5,41.5C 298.585,39.4131 300.251,38.0798 302.5,37.5 Z"/></g>
<g><path style="opacity:0.192" fill="#4b4b4b" d="M 341.5,37.5 C 340.089,39.914 338.089,41.5806 335.5,42.5C 336.911,40.086 338.911,38.4194 341.5,37.5 Z"/></g>
<g><path style="opacity:0.333" fill="#505050" d="M 297.5,41.5 C 296.415,43.5869 294.749,44.9202 292.5,45.5C 293.585,43.4131 295.251,42.0798 297.5,41.5 Z"/></g>
<g><path style="opacity:0.494" fill="#161616" d="M 261.5,43.5 C 261.415,44.9953 262.081,45.9953 263.5,46.5C 265.969,44.9934 268.135,45.3268 270,47.5C 270.498,50.8168 270.665,54.1501 270.5,57.5C 269.681,54.6946 269.181,51.6946 269,48.5C 266.524,48.2316 264.024,47.8983 261.5,47.5C 260.295,46.0052 260.295,44.6719 261.5,43.5 Z"/></g>
<g><path style="opacity:0.508" fill="#121212" d="M 291.5,47.5 C 292.156,48.2778 292.989,48.9444 294,49.5C 296.199,48.3546 298.365,48.3546 300.5,49.5C 302.147,51.488 301.814,52.8213 299.5,53.5C 297.695,51.8031 295.361,50.9698 292.5,51C 291.663,49.9887 291.33,48.8221 291.5,47.5 Z"/></g>
<g><path style="opacity:0.512" fill="#161616" d="M 397.5,59.5 C 395.523,61.8138 393.523,64.1472 391.5,66.5C 394.167,70.1667 394.167,73.8333 391.5,77.5C 387.116,69.8966 382.116,62.7299 376.5,56C 374.975,54.9914 373.308,54.4914 371.5,54.5C 372.659,52.6231 374.326,52.1231 376.5,53C 381.363,58.5626 385.863,64.3959 390,70.5C 389.95,65.0566 392.45,61.3899 397.5,59.5 Z"/></g>
<g><path style="opacity:0.999" fill="#f8f8f8" d="M 248.5,54.5 C 262.849,61.8978 266.349,72.8978 259,87.5C 251.821,95.0287 243.821,101.362 235,106.5C 226.605,103.605 221.105,97.9387 218.5,89.5C 218.472,84.1383 218.806,78.8049 219.5,73.5C 220.906,73.0269 221.573,72.0269 221.5,70.5C 223.167,69.5 224.5,68.1667 225.5,66.5C 230.44,62.6843 235.44,58.851 240.5,55C 243.146,54.5026 245.813,54.3359 248.5,54.5 Z M 244.5,75.5 C 247.118,80.6233 247.785,85.9566 246.5,91.5C 243.386,90.9087 240.886,89.242 239,86.5C 235.419,82.0911 234.085,77.0911 235,71.5C 235.689,70.6433 236.522,69.9767 237.5,69.5C 240.493,70.8334 242.827,72.8334 244.5,75.5 Z"/></g>
<g><path style="opacity:0.997" fill="#f6f6f6" d="M 344.5,54.5 C 346.5,56.671 348.334,59.0043 350,61.5C 350.333,70.8333 350.667,80.1667 351,89.5C 353.519,90.8796 356.019,92.213 358.5,93.5C 353.821,98.1777 348.821,102.511 343.5,106.5C 339.233,103.638 336.733,99.6378 336,94.5C 335.667,86.8333 335.333,79.1667 335,71.5C 334.481,70.4844 333.647,69.8178 332.5,69.5C 330.432,70.6534 328.432,70.6534 326.5,69.5C 326.557,68.391 326.89,67.391 327.5,66.5C 329.404,66.2624 330.738,65.2624 331.5,63.5C 332.167,62.8333 332.833,62.1667 333.5,61.5C 335.749,60.9202 337.415,59.5869 338.5,57.5C 339.911,55.461 341.911,54.461 344.5,54.5 Z"/></g>
<g><path style="opacity:0.139" fill="#040104" d="M 41.5,46.5 C 44.1216,48.7819 46.7883,51.1152 49.5,53.5C 53.1667,57.8333 57.1667,61.8333 61.5,65.5C 62.5,66.8333 63.5,68.1667 64.5,69.5C 55.8544,62.8544 48.1877,55.1878 41.5,46.5 Z"/></g>
<g><path style="opacity:0.337" fill="#292929" d="M 248.5,54.5 C 245.813,54.3359 243.146,54.5026 240.5,55C 235.44,58.851 230.44,62.6843 225.5,66.5C 229.529,61.6468 234.196,57.4802 239.5,54C 242.739,51.8934 245.739,52.06 248.5,54.5 Z"/></g>
<g><path style="opacity:0.534" fill="#0f0f0f" d="M 248.5,54.5 C 259.586,56.9609 265.252,63.9609 265.5,75.5C 264.806,80.8936 262.973,85.8936 260,90.5C 254.532,94.9666 249.365,99.8 244.5,105C 236.338,111.304 229.171,110.137 223,101.5C 220.636,97.7814 219.136,93.7814 218.5,89.5C 221.105,97.9387 226.605,103.605 235,106.5C 243.821,101.362 251.821,95.0287 259,87.5C 266.349,72.8978 262.849,61.8978 248.5,54.5 Z"/></g>
<g><path style="opacity:0.404" fill="#3d3d3d" d="M 338.5,57.5 C 337.415,59.5869 335.749,60.9202 333.5,61.5C 334.585,59.4131 336.251,58.0798 338.5,57.5 Z"/></g>
<g><path style="opacity:0.588" fill="#3d3d3d" d="M 329.5,63.5 C 330.167,63.5 330.833,63.5 331.5,63.5C 330.738,65.2624 329.404,66.2624 327.5,66.5C 327.5,66.1667 327.5,65.8333 327.5,65.5C 328.167,65.5 328.5,65.1667 328.5,64.5C 329.167,64.5 329.5,64.1667 329.5,63.5 Z"/></g>
<g><path style="opacity:0.867" fill="#777777" d="M 203.5,63.5 C 202.943,68.1646 201.61,72.4979 199.5,76.5C 200.057,71.8354 201.39,67.5021 203.5,63.5 Z"/></g>
<g><path style="opacity:0.479" fill="#121212" d="M 244.5,75.5 C 242.827,72.8334 240.493,70.8334 237.5,69.5C 236.522,69.9767 235.689,70.6433 235,71.5C 234.085,77.0911 235.419,82.0911 239,86.5C 240.886,89.242 243.386,90.9087 246.5,91.5C 246.53,92.4972 246.03,93.1639 245,93.5C 238.411,90.6943 234.411,85.6943 233,78.5C 232.333,74.8333 232.333,71.1667 233,67.5C 236.192,65.5129 239.192,66.1796 242,69.5C 243.559,71.2166 244.392,73.2166 244.5,75.5 Z"/></g>
<g><path style="opacity:0.318" fill="#1e1e1e" d="M 225.5,66.5 C 224.5,68.1667 223.167,69.5 221.5,70.5C 221.833,68.1667 223.167,66.8333 225.5,66.5 Z"/></g>
<g><path style="opacity:0.224" fill="#1e1e1e" d="M 221.5,70.5 C 221.573,72.0269 220.906,73.0269 219.5,73.5C 219.427,71.9731 220.094,70.9731 221.5,70.5 Z"/></g>
<g><path style="opacity:0.517" fill="#111111" d="M 326.5,69.5 C 328.432,70.6534 330.432,70.6534 332.5,69.5C 333.647,69.8178 334.481,70.4844 335,71.5C 335.333,79.1667 335.667,86.8333 336,94.5C 336.733,99.6378 339.233,103.638 343.5,106.5C 348.821,102.511 353.821,98.1777 358.5,93.5C 356.019,92.213 353.519,90.8796 351,89.5C 350.667,80.1667 350.333,70.8333 350,61.5C 348.334,59.0043 346.5,56.671 344.5,54.5C 348.286,55.3625 350.786,57.6958 352,61.5C 353.18,70.4497 353.847,79.4497 354,88.5C 356.83,91.1013 359.663,91.1013 362.5,88.5C 359.746,92.7467 358.912,97.4133 360,102.5C 360.615,104.116 361.615,105.449 363,106.5C 366.81,102.6 370.81,98.9336 375,95.5C 374.1,93.422 373.6,91.0887 373.5,88.5C 373.515,86.3659 374.015,84.3659 375,82.5C 379.333,91.1638 384.833,98.9972 391.5,106C 392.5,106.667 393.5,106.667 394.5,106C 398.217,102.615 402.217,99.6153 406.5,97C 408.329,95.8867 409.163,94.3867 409,92.5C 401.941,92.1114 397.107,88.6114 394.5,82C 399.73,77.7618 403.897,72.5952 407,66.5C 408.407,61.633 407.24,57.633 403.5,54.5C 401.481,56.1897 399.481,57.8564 397.5,59.5C 401.587,50.9514 406.087,50.6181 411,58.5C 412.227,67.8546 408.727,74.6879 400.5,79C 399.57,80.1939 398.903,81.5272 398.5,83C 401.289,86.7772 404.956,89.4438 409.5,91C 410.899,92.0616 411.899,93.395 412.5,95C 408.153,100.009 403.153,104.342 397.5,108C 394.833,108.667 392.167,108.667 389.5,108C 385.154,104.133 381.654,99.6332 379,94.5C 375.201,99.3006 371.034,103.801 366.5,108C 364.833,108.667 363.167,108.667 361.5,108C 359.479,105.659 357.812,103.159 356.5,100.5C 352.691,103.142 349.024,105.975 345.5,109C 343.365,109.635 341.365,109.301 339.5,108C 335.38,102.939 333.38,97.1057 333.5,90.5C 334.414,84.5405 334.747,78.5405 334.5,72.5C 332.181,73.167 329.847,73.3336 327.5,73C 326.663,71.9887 326.33,70.8221 326.5,69.5 Z"/></g>
<g><path style="opacity:0.424" fill="#121212" d="M 356.5,68.5 C 357.151,69.0906 357.818,69.7573 358.5,70.5C 361.245,69.1471 363.912,69.3137 366.5,71C 369.07,73.0673 371.07,75.5673 372.5,78.5C 372.145,79.5223 371.478,80.189 370.5,80.5C 369.089,74.3975 365.422,72.0642 359.5,73.5C 357.227,72.6249 356.227,70.9582 356.5,68.5 Z"/></g>
<g><path style="opacity:0.997" fill="#f7f7f7" d="M 371.5,54.5 C 373.308,54.4914 374.975,54.9914 376.5,56C 382.116,62.7299 387.116,69.8966 391.5,77.5C 394.167,73.8333 394.167,70.1667 391.5,66.5C 393.523,64.1472 395.523,61.8138 397.5,59.5C 399.481,57.8564 401.481,56.1897 403.5,54.5C 407.24,57.633 408.407,61.633 407,66.5C 403.897,72.5952 399.73,77.7618 394.5,82C 397.107,88.6114 401.941,92.1114 409,92.5C 409.163,94.3867 408.329,95.8867 406.5,97C 402.217,99.6153 398.217,102.615 394.5,106C 393.5,106.667 392.5,106.667 391.5,106C 384.833,98.9972 379.333,91.1638 375,82.5C 374.015,84.3659 373.515,86.3659 373.5,88.5C 373.6,91.0887 374.1,93.422 375,95.5C 370.81,98.9336 366.81,102.6 363,106.5C 361.615,105.449 360.615,104.116 360,102.5C 358.912,97.4133 359.746,92.7467 362.5,88.5C 364.5,87.1667 366.167,85.5 367.5,83.5C 368.167,82.1667 369.167,81.1667 370.5,80.5C 371.478,80.189 372.145,79.5223 372.5,78.5C 371.07,75.5673 369.07,73.0673 366.5,71C 363.912,69.3137 361.245,69.1471 358.5,70.5C 357.818,69.7573 357.151,69.0906 356.5,68.5C 360.819,63.1838 365.819,58.5171 371.5,54.5 Z"/></g>
<g><path style="opacity:0.998" fill="#c732d7" d="M 24.5,74.5 C 37.5,74.5 50.5,74.5 63.5,74.5C 53.1883,82.8198 43.5216,91.8198 34.5,101.5C 26.8417,94.3418 19.3417,87.0085 12,79.5C 11.2797,77.8876 11.4464,76.3876 12.5,75C 16.4862,74.5012 20.4862,74.3345 24.5,74.5 Z"/></g>
<g><path style="opacity:0.231" fill="#272727" d="M 219.5,73.5 C 218.806,78.8049 218.472,84.1383 218.5,89.5C 217.838,87.6965 217.505,85.6965 217.5,83.5C 217.398,79.8832 218.065,76.5499 219.5,73.5 Z"/></g>
<g><path style="opacity:0.176" fill="#282828" d="M 367.5,83.5 C 366.167,85.5 364.5,87.1667 362.5,88.5C 363.167,85.8333 364.833,84.1667 367.5,83.5 Z"/></g>
<g><path style="opacity:0.532" fill="#080808" d="M 278.5,29.5 C 282.719,30.5484 285.553,33.2151 287,37.5C 288.044,46.2841 288.877,54.9507 289.5,63.5C 293.029,65.4228 297.029,66.0894 301.5,65.5C 301.334,75.8387 301.5,86.172 302,96.5C 303.202,100.69 305.535,104.023 309,106.5C 315.67,101.326 322.17,95.9924 328.5,90.5C 328.113,89.2801 327.28,88.6135 326,88.5C 322.866,90.8932 319.866,90.8932 317,88.5C 316.5,80.8406 316.334,73.1739 316.5,65.5C 322.295,65.4005 326.628,62.7338 329.5,57.5C 330.434,56.4324 330.768,55.099 330.5,53.5C 331.88,53.9623 332.547,54.9623 332.5,56.5C 331.763,58.9703 330.763,61.3036 329.5,63.5C 328.833,63.5 328.5,63.8333 328.5,64.5C 327.833,64.5 327.5,64.8333 327.5,65.5C 324.54,66.611 321.706,67.9444 319,69.5C 318.814,74.8402 319.148,80.1735 320,85.5C 323.168,87.2049 326.668,88.0382 330.5,88C 332.211,89.1332 332.711,90.6332 332,92.5C 325.515,99.4819 318.015,105.149 309.5,109.5C 304.874,108.286 302.041,105.286 301,100.5C 300.5,89.505 300.333,78.505 300.5,67.5C 296.76,67.7592 293.094,67.4259 289.5,66.5C 288.335,74.145 288.169,81.8117 289,89.5C 291,90.1667 293,90.8333 295,91.5C 295.667,93.1667 295.667,94.8333 295,96.5C 290.5,100.333 286,104.167 281.5,108C 278.044,109.123 275.21,108.29 273,105.5C 272,103.5 271,101.5 270,99.5C 269.173,86.9931 269.34,74.6597 270.5,62.5C 270.333,73.8382 270.5,85.1716 271,96.5C 272.202,100.69 274.535,104.023 278,106.5C 283.484,102.513 288.651,98.1799 293.5,93.5C 293.291,92.914 292.957,92.414 292.5,92C 290.236,91.7638 288.069,91.2638 286,90.5C 285.667,73.1667 285.333,55.8333 285,38.5C 283.389,35.0624 281.223,32.0624 278.5,29.5 Z"/></g>
<g><path style="opacity:0.429" fill="#818181" d="M 316.5,53.5 C 317.5,53.5 318.5,53.5 319.5,53.5C 323.167,53.5 326.833,53.5 330.5,53.5C 330.768,55.099 330.434,56.4324 329.5,57.5C 329.5,56.5 329.5,55.5 329.5,54.5C 324.968,54.8182 320.634,54.4849 316.5,53.5 Z"/></g>
<g><path style="opacity:1" fill="#b431ef" d="M 70.5,134.5 C 69.7494,135.573 68.7494,135.74 67.5,135C 61.6304,129.298 55.9638,123.465 50.5,117.5C 56.8036,111.366 63.3036,105.366 70,99.5C 70.4999,111.162 70.6665,122.829 70.5,134.5 Z"/></g>
</svg>
